<svg version="1.1" xmlns="http://www.w3.org/2000/svg" style="display: block;" viewBox="0 0 2048 1114" width="1000" height="544" preserveAspectRatio="none">
<path transform="translate(0,0)" fill="rgb(255,255,255)" d="M 0 0 L 2048 0 L 2048 1114 L 0 1114 L 0 0 z"/>
<path transform="translate(0,0)" fill="rgb(12,30,47)" d="M 625.973 181.389 L 1210.86 181.57 C 1210.52 215.191 1210.51 248.815 1210.82 282.436 L 995.493 477.668 C 992.947 472.43 989.84 468.233 986.532 463.479 C 993.887 457.444 996.569 453.805 999.592 445.085 C 1000.41 438.464 999.521 434.144 997.596 427.857 C 1009.9 396.134 1028.81 364.204 1057.57 344.839 C 1066.23 339.01 1083.53 339.512 1081.53 323.367 C 1080.94 318.532 1078.35 314.165 1074.4 311.317 C 1071.1 308.921 1066.98 307.96 1062.96 308.654 C 1054.61 310.181 1049.74 326.871 1044.65 333.788 C 1032.23 350.673 1011.38 362.281 991.466 367.884 C 986.356 369.321 970.914 371.717 967.662 373.142 C 953.966 379.139 956.712 380.76 941.156 383.678 C 934.891 376.825 932.806 374.649 924.24 371.246 C 957.137 342.311 990.384 311.499 1023 282.029 L 625.866 281.982 C 625.727 248.451 625.763 214.92 625.973 181.389 z"/>
<path transform="translate(0,0)" fill="rgb(20,147,162)" d="M 1129.51 222.888 C 1139.65 222.363 1148.43 229.87 1149.48 239.972 C 1150.54 250.074 1143.5 259.235 1133.47 260.819 C 1126.5 261.921 1119.48 259.084 1115.24 253.442 C 1110.99 247.801 1110.2 240.276 1113.19 233.878 C 1116.18 227.48 1122.45 223.253 1129.51 222.888 z"/>
<path transform="translate(0,0)" fill="rgb(20,147,162)" d="M 1039.74 384.691 C 1049.97 383.619 1059.13 391.064 1060.18 401.304 C 1061.22 411.544 1053.75 420.686 1043.51 421.702 C 1033.31 422.715 1024.21 415.28 1023.17 405.078 C 1022.13 394.877 1029.54 385.758 1039.74 384.691 z"/>
<path transform="translate(0,0)" fill="rgb(20,147,162)" d="M 1111.07 295.538 C 1119.84 293.105 1128.93 298.163 1131.48 306.892 C 1134.03 315.621 1129.09 324.78 1120.4 327.449 C 1114.26 329.335 1107.58 327.511 1103.24 322.765 C 1099.35 318.498 1097.95 312.515 1099.54 306.962 C 1101.14 301.41 1105.51 297.084 1111.07 295.538 z"/>
<path transform="translate(0,0)" fill="rgb(20,147,162)" d="M 992.971 325.668 C 1000.76 324.955 1007.64 330.696 1008.34 338.482 C 1009.04 346.268 1003.28 353.142 995.496 353.826 C 987.729 354.507 980.878 348.772 980.181 341.006 C 979.485 333.241 985.207 326.379 992.971 325.668 z"/>
<path transform="translate(0,0)" fill="rgb(20,147,162)" d="M 1175.94 234.665 C 1179.87 233.226 1184.28 234.077 1187.39 236.877 C 1190.5 239.677 1191.82 243.967 1190.8 248.03 C 1189.79 252.092 1186.61 255.262 1182.55 256.27 C 1176.71 257.718 1170.76 254.348 1169.01 248.599 C 1167.25 242.85 1170.29 236.73 1175.94 234.665 z"/>
<path transform="translate(0,0)" fill="rgb(20,147,162)" d="M 1068.63 263.251 C 1072.55 264.018 1071.4 263.314 1074.05 265.547 C 1074.39 268.327 1074.47 270.809 1074.58 273.592 C 1076.78 275.71 1079.89 274.879 1083.96 275.294 C 1086.01 277.552 1085.64 276.483 1085.69 279.225 C 1082.92 281.272 1079.53 281.197 1075.95 281.595 C 1074.82 283.288 1074.86 288.531 1074.26 291.731 L 1069.89 291.19 C 1067.15 288.618 1068.04 287.571 1067.7 282.572 C 1064.28 279.544 1062.9 283.181 1058.36 280.381 C 1058.02 277.212 1057.78 278.422 1059.1 275.711 C 1062.49 275.435 1063.32 275.466 1066.43 273.887 C 1069.04 269.878 1068.3 268.533 1068.63 263.251 z"/>
<path transform="translate(0,0)" fill="rgb(20,147,162)" d="M 1074.57 362.744 C 1079.69 361.058 1085.21 363.811 1086.95 368.916 C 1088.68 374.02 1085.98 379.57 1080.9 381.356 C 1075.74 383.166 1070.09 380.421 1068.33 375.246 C 1066.57 370.07 1069.37 364.453 1074.57 362.744 z"/>
<path transform="translate(0,0)" fill="rgb(20,147,162)" d="M 1021.19 302.508 C 1025.39 300.453 1030.45 302.213 1032.47 306.425 C 1034.48 310.637 1032.68 315.684 1028.44 317.66 C 1024.27 319.61 1019.3 317.833 1017.31 313.676 C 1015.32 309.519 1017.06 304.536 1021.19 302.508 z"/>
<path transform="translate(0,0)" fill="rgb(20,147,162)" d="M 1147.12 281.703 C 1150.9 279.559 1155.7 280.887 1157.84 284.668 C 1159.97 288.449 1158.63 293.246 1154.85 295.374 C 1151.07 297.497 1146.3 296.163 1144.16 292.393 C 1142.03 288.623 1143.36 283.84 1147.12 281.703 z"/>
<path transform="translate(0,0)" fill="rgb(20,147,162)" d="M 1184.07 201.586 C 1186.36 200.305 1189.16 200.368 1191.39 201.75 C 1193.62 203.132 1194.93 205.615 1194.8 208.236 C 1194.68 210.857 1193.14 213.204 1190.79 214.365 C 1187.27 216.098 1183.02 214.716 1181.2 211.25 C 1179.38 207.784 1180.65 203.496 1184.07 201.586 z"/>
<path transform="translate(0,0)" fill="rgb(20,147,162)" d="M 1098.57 275.086 C 1104.9 274.78 1117.8 273.257 1123.64 275.408 C 1125.4 276.056 1125.6 278.877 1126.13 281.006 C 1119.33 281.077 1107.1 282.616 1100.92 280.079 C 1099.62 279.544 1099.14 276.841 1098.57 275.086 z"/>
<path transform="translate(0,0)" fill="rgb(20,147,162)" d="M 1105.37 338.477 C 1109 337.574 1112.69 339.67 1113.78 343.245 C 1114.87 346.821 1112.97 350.623 1109.46 351.897 C 1107.02 352.782 1104.29 352.248 1102.36 350.509 C 1100.43 348.769 1099.62 346.108 1100.25 343.589 C 1100.88 341.07 1102.85 339.104 1105.37 338.477 z"/>
<path transform="translate(0,0)" fill="rgb(20,147,162)" d="M 1331.27 181.345 L 1467.28 181.309 L 1467.27 749.166 C 1439.59 749.719 1410.35 749.259 1382.55 749.271 L 1346.67 749.197 L 1346.91 282.002 L 1245.82 281.886 L 1299.3 218.424 C 1308.67 207.354 1321.38 191.448 1331.27 181.345 z"/>
<path transform="translate(0,0)" fill="rgb(12,30,47)" d="M 806.881 648.181 L 1201.86 648.108 L 1201.98 749.07 L 1079.25 749.105 L 689.227 749.039 C 703.38 740.966 707.771 733.562 713.765 719.172 C 723.191 726.12 736.982 730.652 747.568 723.09 C 757.707 715.847 759.713 705.6 761.862 694.134 C 767.444 693.117 773.097 693.737 778.625 692.551 C 800.455 687.865 811.356 669.591 806.881 648.181 z"/>
<path transform="translate(0,0)" fill="rgb(12,30,47)" d="M 670.788 822.337 C 690.816 822.157 759.253 819.533 774.22 826.245 C 781.023 829.295 785.894 834.547 788.496 841.524 C 792.274 851.656 792.49 868.764 787.724 878.617 C 783.474 887.403 775.678 890.775 766.955 893.682 C 776.808 907.164 786.71 918.712 796.541 932.796 L 777.255 932.999 C 776.254 933.028 771.624 933.116 771.036 932.899 C 762.097 929.589 746.079 903.465 740.984 896.089 L 694.746 896.128 C 694.742 908.372 694.828 920.471 694.219 932.708 C 686.82 932.976 677.84 933.81 670.909 931.657 C 668.351 928.629 667.819 827.053 670.788 822.337 z"/>
<path transform="translate(0,0)" fill="rgb(255,255,255)" d="M 694.767 844.099 C 697.342 844.111 702.125 843.812 704.409 844.11 C 726.876 847.042 780.195 830.287 762.887 873.608 C 753.64 879.192 708.293 877.07 694.635 876.983 L 694.767 844.099 z"/>
<path transform="translate(0,0)" fill="rgb(12,30,47)" d="M 1274.71 822.376 C 1290.98 821.897 1308.4 822.301 1325.04 822.449 C 1343.77 822.615 1386.64 816.537 1392.43 841.66 C 1397.72 864.61 1396.69 885.645 1370.98 893.603 C 1378.75 903.831 1394.12 922.557 1399.95 932.539 C 1394.36 933.072 1385.62 932.89 1379.75 932.915 C 1376.96 932.986 1375.89 932.906 1373.13 932.512 C 1366.44 928.534 1350.96 904.573 1344.86 896.152 L 1298.02 896.169 C 1298.11 908.313 1298.05 920.457 1297.85 932.599 C 1290.36 933.149 1280.71 932.839 1273.04 932.792 C 1271.84 902.155 1273.2 856.45 1273.3 824.495 C 1273.86 823.66 1274.32 822.954 1274.71 822.376 z"/>
<path transform="translate(0,0)" fill="rgb(255,255,255)" d="M 1298.07 844.106 C 1316.66 844.169 1335.49 843.555 1354.12 843.98 C 1371.44 844.375 1374.73 862.127 1365.92 873.866 C 1356.41 879.163 1310.81 877.061 1298.05 877.025 L 1298.07 844.106 z"/>
<path transform="translate(0,0)" fill="rgb(12,30,47)" d="M 867.328 822.393 C 878.942 822.106 891.04 819.589 897.369 830.999 C 915.821 864.267 936.572 898.692 953.587 932.588 C 945.308 933.204 934.926 932.907 926.464 932.877 C 922.11 926.088 917.058 916.283 913.195 909.138 L 885.25 909.542 L 840.838 909.515 C 837.221 916.785 832.739 926.501 828.208 932.946 C 819.323 933.038 810.436 932.963 801.554 932.721 C 802.518 930.337 803.325 928.604 804.531 926.329 L 838.431 863.68 C 844.178 853.109 856.346 825.755 867.328 822.393 z"/>
<path transform="translate(0,0)" fill="rgb(255,255,255)" d="M 876.456 843.571 C 881.376 846.959 899.396 882.938 903.976 891.228 L 880.25 891.371 L 850.913 891.36 C 855.932 881.645 871.029 850.965 876.456 843.571 z"/>
<path transform="translate(0,0)" fill="rgb(12,30,47)" d="M 1446.18 822.449 C 1472.18 822.12 1501.25 821.99 1527.08 822.619 C 1527.29 829.523 1527.14 837.089 1527.13 844.047 C 1500.7 844.816 1473.34 843.525 1446.84 844.242 C 1444.8 844.298 1441.92 845.294 1440.48 846.816 C 1438.09 849.334 1438.32 853.981 1438.44 857.234 C 1440.42 879.76 1509.66 855.473 1525.25 874.637 C 1530.39 879.612 1532.32 884.939 1532.75 892.21 C 1534.67 925.092 1526.95 931.306 1494.68 932.858 L 1413.18 932.91 C 1412.71 926.68 1413.01 917.378 1413.05 910.903 C 1432.55 910.731 1452.06 910.681 1471.57 910.751 C 1481.01 910.758 1499.7 912.93 1506.62 906.69 C 1508.32 903.5 1508.42 898.607 1507.94 895.08 C 1505.35 876.251 1440.97 896.149 1421.57 879.923 C 1416.03 875.29 1414 868.746 1413.54 861.754 C 1412.87 851.404 1412.59 839.117 1420.02 830.975 C 1426.76 823.589 1436.84 822.931 1446.18 822.449 z"/>
<path transform="translate(0,0)" fill="rgb(12,30,47)" d="M 1177.97 822.413 C 1199.82 821.592 1231.9 821.986 1253.93 822.638 C 1254.31 828.982 1254.11 837.228 1254.12 843.72 C 1236.95 844.532 1219.78 843.551 1202.69 843.846 C 1192.03 844.03 1172.41 841.021 1166.12 851.051 C 1163.77 854.784 1162.29 861.38 1163.21 865.713 C 1166.43 868.15 1240.06 867.01 1251.1 867.121 C 1251.56 873.568 1251.27 879.872 1251.1 886.327 C 1225.5 887.653 1191.18 886.684 1164.88 886.629 L 1163.43 887.384 C 1163.19 888.038 1162.84 889.123 1162.83 889.823 C 1162.43 914.918 1182.41 910.841 1201.09 911.291 C 1217.45 911.686 1237 910.195 1254.23 911.582 C 1254.44 918.19 1254.16 926.049 1254.09 932.751 C 1235 933.691 1214.79 932.708 1195.72 933.032 C 1167.4 933.862 1139 931.129 1138.28 895.11 C 1137.55 857.935 1131.42 825.89 1177.97 822.413 z"/>
<path transform="translate(0,0)" fill="rgb(12,30,47)" d="M 530.003 822.389 C 535.104 822.235 540.629 822.26 545.737 822.348 C 581.683 822.97 618.213 821.431 654.102 822.695 C 654.197 829.657 653.972 837.172 653.891 844.181 C 638.63 844.958 619.529 844.452 603.982 844.446 L 604.071 884.5 L 603.99 932.671 C 596.782 932.929 587.926 933.701 581.181 931.745 C 577.576 928.002 579.087 855.174 579.113 844.358 C 562.449 844.532 545.784 844.442 529.123 844.087 C 528.986 838.592 528.42 827.248 530.003 822.389 z"/>
<path transform="translate(0,0)" fill="rgb(12,30,47)" d="M 1016.45 822.39 C 1023.97 822.287 1031.5 822.383 1039.02 822.678 C 1039.25 838.363 1039.27 854.049 1039.08 869.734 C 1038.85 911.097 1037.69 910.533 1078.84 910.309 C 1094 910.173 1109.16 910.148 1124.32 910.233 C 1124.48 911.314 1124.6 912.401 1124.67 913.491 C 1125.02 919.134 1126.24 928.981 1122.82 932.847 C 1100.33 932.95 1040.72 937.634 1024.54 923.15 C 1016.74 916.17 1015.14 906.541 1014.49 896.584 C 1013.92 887.705 1013.2 827.766 1015.05 823.978 C 1015.36 823.344 1015.98 822.919 1016.45 822.39 z"/>
<path transform="translate(0,0)" fill="rgb(20,147,162)" d="M 818.091 556.557 C 837.853 553.383 856.49 566.703 859.885 586.429 C 863.28 606.155 850.169 624.94 830.482 628.555 C 817.55 630.929 804.339 626.171 795.892 616.096 C 787.444 606.021 785.062 592.183 789.656 579.863 C 794.249 567.543 805.109 558.642 818.091 556.557 z"/>
<path transform="translate(0,0)" fill="rgb(20,147,162)" d="M 658.335 670.292 C 677.916 666.107 697.217 678.465 701.61 698 C 706.004 717.536 693.852 736.967 674.365 741.568 C 661.573 744.588 648.145 740.503 639.201 730.872 C 630.258 721.24 627.179 707.546 631.137 695.013 C 635.096 682.48 645.482 673.04 658.335 670.292 z"/>
<path transform="translate(0,0)" fill="rgb(12,30,47)" d="M 970.27 822.483 C 977.567 822.323 984.832 822.492 992.129 822.609 C 992.862 836.477 994.134 924.125 991.505 932.916 L 967.683 932.871 C 966.009 904.684 967.526 854.632 967.658 824.675 C 967.663 823.494 969.069 823.108 970.27 822.483 z"/>
<path transform="translate(0,0)" fill="rgb(20,147,162)" d="M 657.439 607.437 C 670.826 606.904 682.187 617.162 683.019 630.534 C 683.851 643.906 673.849 655.493 660.499 656.624 C 651.594 657.378 642.978 653.253 637.983 645.843 C 632.987 638.432 632.393 628.898 636.432 620.926 C 640.471 612.954 648.509 607.792 657.439 607.437 z"/>
<path transform="translate(0,0)" fill="rgb(20,147,162)" d="M 882.961 468.556 C 891.605 466.454 900.709 469.189 906.763 475.707 C 912.816 482.225 914.872 491.507 912.137 499.972 C 909.401 508.437 902.303 514.761 893.58 516.504 C 880.473 519.123 867.678 510.781 864.788 497.731 C 861.897 484.681 869.974 471.716 882.961 468.556 z"/>
<path transform="translate(0,0)" fill="rgb(20,147,162)" d="M 957.427 464.702 C 970.945 463.508 982.857 473.533 983.987 487.056 C 985.118 500.58 975.037 512.444 961.508 513.511 C 948.069 514.571 936.301 504.571 935.178 491.137 C 934.054 477.704 943.999 465.888 957.427 464.702 z"/>
<path transform="translate(0,0)" fill="rgb(20,147,162)" d="M 765.739 515.345 C 779.26 513.887 791.372 523.742 792.695 537.276 C 794.018 550.811 784.043 562.824 770.496 564.013 C 757.138 565.185 745.329 555.379 744.024 542.034 C 742.72 528.688 752.407 516.782 765.739 515.345 z"/>
<path transform="translate(0,0)" fill="rgb(20,147,162)" d="M 764.871 633.386 C 777.855 629.876 791.235 637.513 794.817 650.477 C 798.398 663.441 790.835 676.864 777.891 680.517 C 764.846 684.199 751.294 676.564 747.685 663.498 C 744.075 650.431 751.785 636.923 764.871 633.386 z"/>
<path transform="translate(0,0)" fill="rgb(20,147,162)" d="M 875.012 409.466 C 881.382 407.663 888.23 408.987 893.469 413.035 C 898.708 417.082 901.718 423.374 901.581 429.993 C 901.392 439.138 895.276 447.095 886.488 449.63 C 875.385 452.832 863.792 446.41 860.618 435.3 C 857.444 424.19 863.894 412.613 875.012 409.466 z"/>
<path transform="translate(0,0)" fill="rgb(20,147,162)" d="M 813.249 477.284 C 819.206 476.508 825.208 478.339 829.719 482.306 C 834.231 486.273 836.813 491.992 836.805 498 C 836.791 508.493 828.986 517.343 818.577 518.669 C 807.158 520.123 796.719 512.054 795.249 500.637 C 793.779 489.22 801.834 478.77 813.249 477.284 z"/>
<path transform="translate(0,0)" fill="rgb(20,147,162)" d="M 728.872 684.646 C 734.052 683.045 739.692 684.351 743.641 688.065 C 747.59 691.779 749.239 697.329 747.959 702.597 C 746.678 707.865 742.665 712.038 737.452 713.525 C 729.513 715.789 721.231 711.242 718.88 703.328 C 716.53 695.415 720.985 687.084 728.872 684.646 z"/>
<path transform="translate(0,0)" fill="rgb(20,147,162)" d="M 691.381 581.668 C 699.031 578.889 707.504 582.69 710.516 590.251 C 713.528 597.812 709.989 606.398 702.524 609.641 C 697.487 611.829 691.658 611.102 687.313 607.744 C 682.967 604.386 680.794 598.93 681.64 593.504 C 682.487 588.078 686.219 583.542 691.381 581.668 z"/>
<path transform="translate(0,0)" fill="rgb(20,147,162)" d="M 969.027 424.424 C 976.958 422.525 984.959 427.29 987.067 435.169 C 989.176 443.047 984.624 451.172 976.804 453.488 C 971.558 455.042 965.882 453.626 961.981 449.79 C 958.079 445.954 956.567 440.303 958.031 435.031 C 959.496 429.76 963.706 425.698 969.027 424.424 z"/>
<path transform="translate(0,0)" fill="rgb(20,147,162)" d="M 883.521 537.483 C 891.27 534.693 899.814 538.718 902.597 546.469 C 905.381 554.221 901.35 562.761 893.596 565.539 C 885.85 568.314 877.322 564.288 874.541 556.544 C 871.76 548.801 875.78 540.269 883.521 537.483 z"/>
<path transform="translate(0,0)" fill="rgb(20,147,162)" d="M 709.42 628.082 C 712.387 627.966 713.884 627.642 716.587 628.87 C 719.252 633.108 718.209 638.203 718.009 643.658 C 724.162 643.459 729.31 642.169 733.703 647.144 C 733.956 654.13 722.801 652.849 718.067 652.752 L 718.037 667.76 C 715.11 667.785 713.452 667.997 710.712 666.811 C 707.941 662.862 708.972 658.12 709.162 652.811 C 703.836 652.919 694.569 654.337 694.244 647.111 C 698.087 642.129 703.425 643.572 709.262 643.801 L 709.42 628.082 z"/>
<path transform="translate(0,0)" fill="rgb(20,147,162)" d="M 606.016 723.567 C 613.137 721.937 620.251 726.311 622.01 733.401 C 623.769 740.491 619.525 747.683 612.468 749.57 C 607.788 750.822 602.797 749.45 599.415 745.982 C 596.032 742.513 594.786 737.489 596.154 732.842 C 597.523 728.195 601.294 724.648 606.016 723.567 z"/>
<path transform="translate(0,0)" fill="rgb(20,147,162)" d="M 913.949 384.66 C 920.496 382.104 927.879 385.307 930.485 391.834 C 933.091 398.362 929.943 405.769 923.436 408.424 C 916.858 411.108 909.354 407.919 906.72 401.322 C 904.086 394.724 907.331 387.244 913.949 384.66 z"/>
<path transform="translate(0,0)" fill="rgb(20,147,162)" d="M 923.914 430.474 C 926.843 430.405 928.063 430.191 930.722 431.498 C 932.802 434.262 932.063 440.07 931.941 443.788 C 938.437 443.614 940.803 442.42 945.299 447.135 C 945.503 449.931 945.792 448.805 943.721 451.355 C 940.424 453.33 935.916 452.492 931.959 452.198 L 931.997 465.92 C 928.994 466.036 927.58 466.395 924.992 464.92 C 923.008 462.212 923.852 456.149 924.027 452.501 C 920.296 452.585 916.931 452.897 913.356 451.831 C 910.295 449.264 910.854 450.458 910.33 447.323 C 913.522 442.479 918.697 443.715 923.966 443.868 L 923.914 430.474 z"/>
<path transform="translate(0,0)" fill="rgb(20,147,162)" d="M 972.14 384.551 C 976.444 382.903 981.305 383.725 984.828 386.696 C 988.352 389.667 989.983 394.319 989.086 398.84 C 988.188 403.361 984.905 407.038 980.513 408.438 C 973.985 410.52 966.985 407.031 964.718 400.564 C 962.451 394.097 965.74 387.001 972.14 384.551 z"/>
<path transform="translate(0,0)" fill="rgb(20,147,162)" d="M 611.845 654.456 C 617.393 653.147 622.949 656.591 624.246 662.142 C 625.542 667.693 622.086 673.242 616.532 674.526 C 610.996 675.806 605.468 672.363 604.175 666.83 C 602.883 661.296 606.314 655.76 611.845 654.456 z"/>
<path transform="translate(0,0)" fill="rgb(20,147,162)" d="M 834.492 447.69 C 837.957 446.334 841.885 446.965 844.752 449.337 C 847.619 451.71 848.973 455.451 848.289 459.109 C 847.605 462.767 844.991 465.766 841.46 466.942 C 836.192 468.698 830.484 465.934 828.594 460.712 C 826.704 455.49 829.32 449.714 834.492 447.69 z"/>
<path transform="translate(0,0)" fill="rgb(20,147,162)" d="M 924.484 518.657 C 929.97 517.63 935.262 521.205 936.356 526.677 C 937.451 532.15 933.942 537.485 928.483 538.647 C 924.892 539.411 921.167 538.185 918.732 535.437 C 916.296 532.689 915.527 528.844 916.718 525.371 C 917.909 521.898 920.875 519.333 924.484 518.657 z"/>
<path transform="translate(0,0)" fill="rgb(20,147,162)" d="M 830.452 529.899 C 839.341 529.807 857.076 529.145 865.239 530.215 C 866.694 532.272 866.214 535.963 866.191 538.741 C 857.673 538.878 839.559 539.644 831.833 538.567 C 830.13 536.219 830.517 533.002 830.452 529.899 z"/>
<path transform="translate(0,0)" fill="rgb(20,147,162)" d="M 719.01 551.561 C 724.161 549.465 730.034 551.96 732.101 557.123 C 734.169 562.286 731.64 568.145 726.465 570.182 C 721.332 572.204 715.53 569.7 713.48 564.579 C 711.429 559.457 713.9 553.641 719.01 551.561 z"/>
<path transform="translate(0,0)" fill="rgb(20,147,162)" d="M 733.42 595.773 C 743.131 595.726 758.713 595.205 767.927 596.228 C 769.628 598.178 769.313 601.423 769.444 604.254 C 761.082 604.428 742.327 605.037 734.715 603.956 C 733.053 601.78 733.461 598.722 733.42 595.773 z"/>
<path transform="translate(0,0)" fill="rgb(20,147,162)" d="M 1003.29 374.626 C 1006.8 374.01 1010.18 376.227 1011.02 379.69 C 1011.85 383.153 1009.85 386.667 1006.44 387.715 C 1004.04 388.453 1001.43 387.798 999.668 386.015 C 997.901 384.232 997.271 381.616 998.032 379.224 C 998.793 376.832 1000.82 375.061 1003.29 374.626 z"/>
<path transform="translate(0,0)" fill="rgb(20,147,162)" d="M 945.766 403.634 C 947.758 402.377 950.273 402.295 952.342 403.42 C 954.41 404.546 955.708 406.702 955.735 409.056 C 955.761 411.411 954.512 413.596 952.47 414.767 C 949.402 416.527 945.492 415.511 943.668 412.482 C 941.844 409.453 942.777 405.521 945.766 403.634 z"/>
</svg>